<?xml version="1.0" encoding="utf-8"?>
<!-- Generator: Adobe Illustrator 25.0.0, SVG Export Plug-In . SVG Version: 6.00 Build 0)  -->
<svg version="1.1" id="Layer_1" xmlns="http://www.w3.org/2000/svg" xmlns:xlink="http://www.w3.org/1999/xlink" x="0px" y="0px"
	 viewBox="0 0 512.4 147.5" style="enable-background:new 0 0 512.4 147.5;" xml:space="preserve">
<style type="text/css">
	.st0{fill:url(#SVGID_1_);stroke:#FFFFFF;stroke-width:6.2165;}
	.st1{fill:#578F60;}
	.st2{fill:url(#SVGID_2_);}
	.st3{fill:url(#SVGID_3_);}
	.st4{fill:url(#SVGID_4_);}
	.st5{fill:url(#SVGID_5_);}
	.st6{fill:#FFFFFF;}
	.st7{fill:#404041;}
</style>
<g>
	
		<radialGradient id="SVGID_1_" cx="237.4051" cy="2667.8579" r="67.7597" gradientTransform="matrix(1 0 0 1 0 -2629.2917)" gradientUnits="userSpaceOnUse">
		<stop  offset="0" style="stop-color:#FFFFFF"/>
		<stop  offset="0.6667" style="stop-color:#008142"/>
		<stop  offset="1" style="stop-color:#0A4A26"/>
	</radialGradient>
	<path class="st0" d="M269.6,99.8c-25.8,24.5-60.1,30.2-76.7,12.8c-16.5-17.4-9-51.4,16.8-75.9S269.8,6.6,286.4,24
		S295.4,75.3,269.6,99.8z"/>
	<path class="st1" d="M203.3,111.1c0,0,28.4,5.6,47.9-7.9C251.1,103.3,231.9,127.3,203.3,111.1z"/>
	<g>
		
			<linearGradient id="SVGID_2_" gradientUnits="userSpaceOnUse" x1="280" y1="2697.5918" x2="280" y2="2687.5251" gradientTransform="matrix(1 0 0 1 0 -2629.2917)">
			<stop  offset="0" style="stop-color:#D1CFD1"/>
			<stop  offset="1" style="stop-color:#F8FBF8"/>
		</linearGradient>
		<path class="st2" d="M290.9,58.3l-19.7,0.1l-2.1,9.9h18.4C288.7,64.9,290.3,61.5,290.9,58.3z"/>
		
			<linearGradient id="SVGID_3_" gradientUnits="userSpaceOnUse" x1="274.6" y1="2715.6228" x2="274.6" y2="2704.8484" gradientTransform="matrix(1 0 0 1 0 -2629.2917)">
			<stop  offset="0" style="stop-color:#D1CFD1"/>
			<stop  offset="1" style="stop-color:#F8FBF8"/>
		</linearGradient>
		<path class="st3" d="M284.8,75.5h-18.5l-1.9,10.8h12.9C279.8,82.8,283,79.1,284.8,75.5z"/>
		
			<linearGradient id="SVGID_4_" gradientUnits="userSpaceOnUse" x1="194.9781" y1="2684.7917" x2="213.8781" y2="2684.7917" gradientTransform="matrix(1 0 0 1 0 -2629.2917)">
			<stop  offset="0" style="stop-color:#D1CFD1"/>
			<stop  offset="1" style="stop-color:#F8FBF8"/>
		</linearGradient>
		<path class="st4" d="M195,60.9h15.7l3.2-10.8H202C199.4,53.5,196.8,57.3,195,60.9z"/>
		
			<linearGradient id="SVGID_5_" gradientUnits="userSpaceOnUse" x1="188.3" y1="2702.5918" x2="209.1251" y2="2702.5918" gradientTransform="matrix(1 0 0 1 0 -2629.2917)">
			<stop  offset="0" style="stop-color:#D1CFD1"/>
			<stop  offset="1" style="stop-color:#F8FBF8"/>
		</linearGradient>
		<path class="st5" d="M209.1,68.3h-17.5c-0.9,2.5-2.1,4.8-2.7,7.2l-0.6,2.8h18.3L209.1,68.3z"/>
	</g>
</g>
<g>
	<path class="st6" d="M245.4,45.2l-2.2,10h-16c-1.4,0-2.3,0.8-2.6,2.3c-0.4,1.5-1.1,4.7-2.2,9.6c-1.2,5.4-1.8,8.4-1.8,8.9
		c0,1.1,0.5,1.7,1.6,1.7h7.4c1.4,0,2.3-0.8,2.6-2.4c0.1-0.2,0.3-1,0.7-2.5h-8.1l2.2-10h15.2L237.8,83c-0.4,1.7-0.8,2.9-1.3,3.6
		c-0.6,0.8-1.4,1.2-2.4,1.2h-17.2c-1.2,0-2.3-0.4-3.1-1.3c-0.9-1-1.4-2.5-1.4-4.5c0-0.9,0.1-2,0.4-3.2c1.6-7.8,3.7-17.4,6.1-28.7
		c0.4-1.6,0.8-2.8,1.3-3.5c0.6-0.8,1.4-1.2,2.4-1.2h22.8L245.4,45.2L245.4,45.2z"/>
	<path class="st6" d="M265.9,60.6c0.2-0.4-0.6,3-2.1,9.9h-13.1L247,87.8h-7.1l9.2-42.6h20.2l-2.1,10H254l-1.2,5.4L265.9,60.6
		L265.9,60.6z"/>
</g>
<g>
	<path class="st7" d="M39.4,81c-2.9,1-8.5,2.4-14,2.4c-7.6,0-13.2-1.9-17-5.6s-5.9-9.1-5.9-15.3c0.1-13.9,10.2-21.9,23.9-21.9
		c5.4,0,9.6,1.1,11.6,2l-2,7.6c-2.3-1.1-5.1-1.8-9.7-1.8c-7.9,0-13.9,4.5-13.9,13.6c0,8.7,5.5,13.7,13.2,13.7c2.1,0,3.9-0.2,4.6-0.6
		v-8.8h-6.5V59h15.6v22H39.4z"/>
	<path class="st7" d="M46.6,38.9H56V83h-9.4V38.9z"/>
	<path class="st7" d="M77.6,83.6c-8.9,0-15.7-5.8-15.7-15.7s6.5-16.1,16.3-16.1c9.3,0,15.5,6.4,15.5,15.6
		C93.7,78.5,85.8,83.6,77.6,83.6L77.6,83.6z M77.8,76.8c3.7,0,6-3.7,6-9.1c0-4.5-1.7-9.1-6-9.1c-4.5,0-6.2,4.6-6.2,9.1
		C71.6,72.9,73.8,76.8,77.8,76.8L77.8,76.8z"/>
	<path class="st7" d="M99.5,38.9h9.4v17.3h0.1c1.8-2.6,5-4.3,9.2-4.3c7.3,0,12.6,6,12.5,15.4c0,10.9-6.9,16.4-13.9,16.4
		c-3.5,0-7-1.3-9.1-4.9h-0.1l-0.4,4.2h-8c0.1-2,0.2-5.7,0.2-9.1v-35H99.5z M109,70c0,0.6,0.1,1.2,0.2,1.7c0.6,2.5,2.8,4.5,5.5,4.5
		c4,0,6.5-3.1,6.5-8.6c0-4.7-2.1-8.5-6.5-8.5c-2.5,0-4.9,1.9-5.5,4.7c-0.1,0.6-0.2,1.1-0.2,1.7V70z"/>
	<path class="st7" d="M162,75.6c0,2.9,0.1,5.7,0.5,7.3H154l-0.6-3h-0.2c-2,2.4-5.1,3.7-8.7,3.7c-6.2,0-9.8-4.5-9.8-9.3
		c0-7.9,7.1-11.6,17.8-11.6v-0.4c0-1.6-0.9-3.9-5.5-3.9c-3.1,0-6.4,1.1-8.4,2.2l-1.7-6c2.1-1.2,6.3-2.7,11.8-2.7
		c10.1,0,13.3,6,13.3,13.1L162,75.6L162,75.6z M152.9,68.6c-5,0-8.8,1.2-8.8,4.8c0,2.4,1.6,3.6,3.7,3.6c2.3,0,4.3-1.6,4.9-3.5
		c0.1-0.5,0.2-1.1,0.2-1.6L152.9,68.6L152.9,68.6z"/>
	<path class="st7" d="M169.5,38.9h9.4V83h-9.4V38.9z"/>
</g>
<g>
	<path class="st7" d="M300.6,40.2h25.6V48h-16.1v9.6h15v7.7h-15v16.8h-9.4V40.2H300.6z"/>
	<path class="st7" d="M336.4,47.9c-3.2,0-5.2-2.2-5.2-5c0-2.9,2.1-5,5.3-5c3.2,0,5.2,2.2,5.3,5C341.8,45.5,339.8,47.9,336.4,47.9
		L336.4,47.9z M331.8,82.1V51.8h9.4v30.4L331.8,82.1L331.8,82.1z"/>
	<path class="st7" d="M348.8,61.5c0-3.8-0.1-7-0.2-9.7h8.2l0.4,4.2h0.2c1.2-2,4.3-4.9,9.4-4.9c6.2,0,10.9,4.2,10.9,13.1v18h-9.4
		V65.3c0-3.9-1.4-6.6-4.8-6.6c-2.6,0-4.2,1.8-4.8,3.5c-0.2,0.6-0.3,1.5-0.3,2.4v17.5H349V61.5H348.8z"/>
	<path class="st7" d="M410.5,74.8c0,2.9,0.1,5.7,0.5,7.3h-8.5l-0.6-3h-0.2c-2,2.4-5.1,3.7-8.7,3.7c-6.2,0-9.8-4.5-9.8-9.3
		c0-7.9,7.1-11.6,17.8-11.6v-0.4c0-1.6-0.9-3.9-5.5-3.9c-3.1,0-6.4,1.1-8.4,2.2l-1.7-6c2.1-1.2,6.3-2.7,11.8-2.7
		c10.1,0,13.3,6,13.3,13.1L410.5,74.8L410.5,74.8z M401.4,67.8c-5,0-8.8,1.2-8.8,4.8c0,2.4,1.6,3.6,3.7,3.6c2.3,0,4.3-1.6,4.9-3.5
		c0.1-0.5,0.2-1.1,0.2-1.6L401.4,67.8L401.4,67.8z"/>
	<path class="st7" d="M418.1,61.5c0-3.8-0.1-7-0.2-9.7h8.2l0.4,4.2h0.2c1.2-2,4.3-4.9,9.4-4.9c6.2,0,10.9,4.2,10.9,13.1v18h-9.4
		V65.3c0-3.9-1.4-6.6-4.8-6.6c-2.6,0-4.2,1.8-4.8,3.5c-0.2,0.6-0.3,1.5-0.3,2.4v17.5h-9.4V61.5H418.1z"/>
	<path class="st7" d="M477.3,81.4c-1.7,0.8-4.8,1.4-8.5,1.4c-9.8,0-16.1-6-16.1-15.6c0-8.9,6.1-16.2,17.4-16.2
		c2.5,0,5.2,0.4,7.2,1.2l-1.5,7c-1.1-0.5-2.8-0.9-5.3-0.9c-5,0-8.2,3.5-8.1,8.5c0,5.6,3.7,8.6,8.3,8.6c2.2,0,4-0.4,5.4-1L477.3,81.4
		z"/>
	<path class="st7" d="M489.1,69.9c0.3,4,4.2,5.8,8.6,5.8c3.2,0,5.8-0.4,8.4-1.3l1.2,6.4c-3.1,1.3-6.9,1.9-11,1.9
		c-10.3,0-16.2-6-16.2-15.5c0-7.7,4.8-16.2,15.4-16.2c9.8,0,13.6,7.6,13.6,15.2c0,1.6-0.2,3-0.3,3.8L489.1,69.9z M500.2,63.5
		c0-2.2-1-6.2-5.3-6.2c-4,0-5.7,3.7-5.9,6.2H500.2z"/>
</g>
<g>
	<path class="st7" d="M321.9,125.5l-0.7-14.2c-0.3-5.9-0.4-10.2-0.3-12.9h-0.2c-0.8,4.2-1.7,8-2.6,11.4l-4,15.4h-2.4l-3.8-14.8
		c-1.1-4.3-2.1-8.3-2.7-12.1h-0.1c0,1.9-0.1,6.3-0.4,13.1l-0.6,13.9h-3.4l1.9-32.9h4.1l3.8,15c1.3,5,2.2,8.8,2.6,11.3h0.1
		c0.5-2.7,1.3-6.5,2.4-11.3l3.7-15h4.2l1.9,32.9H321.9z"/>
	<path class="st7" d="M330.2,101.9h3.7v8.3c0.8-0.1,1.5-0.1,2.2-0.1c2.4,0,4.4,0.7,6,2c1.6,1.3,2.4,3.2,2.4,5.6
		c0,2.5-0.9,4.4-2.6,5.8c-1.9,1.5-4.2,2.3-7,2.3c-1.6,0-3.2-0.1-4.8-0.4V101.9z M333.9,113.1v9.6c0.6,0.1,1.1,0.1,1.7,0.1
		c1.5,0,2.7-0.5,3.7-1.4c1-0.9,1.5-2.1,1.5-3.6c0-1.5-0.5-2.7-1.5-3.6c-1-0.8-2.3-1.3-3.8-1.3C335.1,113,334.6,113,333.9,113.1z
		 M347.1,101.9h3.6v23.6h-3.6V101.9z"/>
	<path class="st7" d="M353.6,101.9h14.5v3.1h-5.4v20.5H359V105h-5.4V101.9z"/>
	<path class="st7" d="M370.9,101.9h3.4v8.1c0,4.7-0.1,8.4-0.3,11.3h0.1c0.5-1.5,1.7-4.6,3.5-9.2l4-10.2h4v23.6H382v-7.8
		c0-3.8,0.1-7.6,0.4-11.5h-0.1c-0.7,2.4-1.6,5.1-2.8,8.2c-2,4.9-3.5,8.6-4.7,11.1h-3.9V101.9z"/>
	<path class="st7" d="M390.7,101.9h3.7v20.5h6.2v-20.5h3.7v20.5h6.2v-20.5h3.7v20.7l1.9,0l-0.2,9.2h-2.9l-0.2-6.3h-22.2V101.9z"/>
	<path class="st7" d="M420.1,101.9h3.4v8.1c0,4.7-0.1,8.4-0.3,11.3h0.1c0.5-1.5,1.7-4.6,3.5-9.2l4-10.2h4v23.6h-3.5v-7.8
		c0-3.8,0.1-7.6,0.4-11.5h-0.1c-0.7,2.4-1.6,5.1-2.8,8.2c-2,4.9-3.5,8.6-4.7,11.1h-3.9V101.9z"/>
</g>
</svg>
