<?xml version="1.0" encoding="utf-8"?>
<!-- Generator: Adobe Illustrator 24.0.0, SVG Export Plug-In . SVG Version: 6.00 Build 0)  -->
<svg version="1.1" id="Layer_1" xmlns="http://www.w3.org/2000/svg" xmlns:xlink="http://www.w3.org/1999/xlink" x="0px" y="0px"
	 viewBox="0 0 512.4 147.5" style="enable-background:new 0 0 512.4 147.5;" xml:space="preserve">
<style type="text/css">
	.st0{fill:url(#SVGID_1_);stroke:#FFFFFF;stroke-width:6.2165;}
	.st1{fill:#578F60;}
	.st2{fill:url(#SVGID_2_);}
	.st3{fill:url(#SVGID_3_);}
	.st4{fill:url(#SVGID_4_);}
	.st5{fill:url(#SVGID_5_);}
	.st6{fill:#FFFFFF;}
</style>
<title>logo-string</title>
<g>
	
		<radialGradient id="SVGID_1_" cx="237.4051" cy="1981.6162" r="67.7597" gradientTransform="matrix(1 0 0 1 0 -1936)" gradientUnits="userSpaceOnUse">
		<stop  offset="0" style="stop-color:#FFFFFF"/>
		<stop  offset="0.6667" style="stop-color:#008142"/>
		<stop  offset="1" style="stop-color:#0A4A26"/>
	</radialGradient>
	<path class="st0" d="M269.6,106.9c-25.8,24.5-60.1,30.2-76.7,12.8c-16.5-17.4-9-51.4,16.8-75.9s60.1-30.2,76.7-12.8
		C303,48.4,295.4,82.4,269.6,106.9z"/>
	<path class="st1" d="M203.3,118.2c0,0,28.4,5.6,47.9-7.9C251.1,110.4,231.9,134.4,203.3,118.2z"/>
	<g>
		
			<linearGradient id="SVGID_2_" gradientUnits="userSpaceOnUse" x1="280" y1="2011.3534" x2="280" y2="2001.2869" gradientTransform="matrix(1 0 0 1 0 -1936)">
			<stop  offset="0" style="stop-color:#D1CFD1"/>
			<stop  offset="1" style="stop-color:#F8FBF8"/>
		</linearGradient>
		<path class="st2" d="M290.9,65.3l-19.7,0.1l-2.1,9.9h18.4C288.7,72,290.3,68.6,290.9,65.3z"/>
		
			<linearGradient id="SVGID_3_" gradientUnits="userSpaceOnUse" x1="274.6" y1="2029.3811" x2="274.6" y2="2018.6068" gradientTransform="matrix(1 0 0 1 0 -1936)">
			<stop  offset="0" style="stop-color:#D1CFD1"/>
			<stop  offset="1" style="stop-color:#F8FBF8"/>
		</linearGradient>
		<path class="st3" d="M284.8,82.6h-18.5l-1.9,10.8h12.9C279.8,89.8,283,86.2,284.8,82.6z"/>
		
			<linearGradient id="SVGID_4_" gradientUnits="userSpaceOnUse" x1="194.9781" y1="1998.5" x2="213.8781" y2="1998.5" gradientTransform="matrix(1 0 0 1 0 -1936)">
			<stop  offset="0" style="stop-color:#D1CFD1"/>
			<stop  offset="1" style="stop-color:#F8FBF8"/>
		</linearGradient>
		<path class="st4" d="M195,67.9h15.7l3.2-10.8H202C199.4,60.6,196.8,64.3,195,67.9z"/>
		
			<linearGradient id="SVGID_5_" gradientUnits="userSpaceOnUse" x1="188.3" y1="2016.4" x2="209.1251" y2="2016.4" gradientTransform="matrix(1 0 0 1 0 -1936)">
			<stop  offset="0" style="stop-color:#D1CFD1"/>
			<stop  offset="1" style="stop-color:#F8FBF8"/>
		</linearGradient>
		<path class="st5" d="M209.1,75.4h-17.5c-0.9,2.5-2.1,4.8-2.7,7.2l-0.6,2.8h18.3L209.1,75.4z"/>
	</g>
</g>
<g>
	<path class="st6" d="M245.4,52.3l-2.2,10h-16c-1.4,0-2.3,0.8-2.6,2.3c-0.4,1.5-1.1,4.7-2.2,9.6c-1.2,5.4-1.8,8.4-1.8,8.9
		c0,1.1,0.5,1.7,1.6,1.7h7.4c1.4,0,2.3-0.8,2.6-2.4c0.1-0.2,0.3-1,0.7-2.5h-8.1l2.2-10h15.2l-4.4,20.2c-0.4,1.7-0.8,2.9-1.3,3.6
		c-0.6,0.8-1.4,1.2-2.4,1.2h-17.2c-1.2,0-2.3-0.4-3.1-1.3c-0.9-1-1.4-2.5-1.4-4.5c0-0.9,0.1-2,0.4-3.2c1.6-7.8,3.7-17.4,6.1-28.7
		c0.4-1.6,0.8-2.8,1.3-3.5c0.6-0.8,1.4-1.2,2.4-1.2h22.8V52.3z"/>
	<path class="st6" d="M265.9,67.7c0.2-0.4-0.6,3-2.1,9.9h-13.1L247,94.8h-7.1l9.2-42.6h20.2l-2.1,10H254l-1.2,5.4L265.9,67.7
		L265.9,67.7z"/>
</g>
<g>
	<path class="st6" d="M39.4,88.1c-2.9,1-8.5,2.4-14,2.4c-7.6,0-13.2-1.9-17-5.6s-5.9-9.1-5.9-15.3c0.1-13.9,10.2-21.9,23.9-21.9
		c5.4,0,9.6,1.1,11.6,2l-2,7.6c-2.3-1.1-5.1-1.8-9.7-1.8c-7.9,0-13.9,4.5-13.9,13.6c0,8.7,5.5,13.7,13.2,13.7c2.1,0,3.9-0.2,4.6-0.6
		v-8.8h-6.5V66h15.6v22.1H39.4z"/>
	<path class="st6" d="M46.6,45.9H56V90h-9.4V45.9z"/>
	<path class="st6" d="M77.6,90.7c-8.9,0-15.7-5.8-15.7-15.7s6.5-16.1,16.3-16.1c9.3,0,15.5,6.4,15.5,15.6
		C93.7,85.6,85.8,90.7,77.6,90.7L77.6,90.7z M77.8,83.9c3.7,0,6-3.7,6-9.1c0-4.5-1.7-9.1-6-9.1c-4.5,0-6.2,4.6-6.2,9.1
		C71.6,80,73.8,83.9,77.8,83.9L77.8,83.9z"/>
	<path class="st6" d="M99.5,45.9h9.4v17.3h0.1c1.8-2.6,5-4.3,9.2-4.3c7.3,0,12.6,6,12.5,15.4c0,10.9-6.9,16.4-13.9,16.4
		c-3.5,0-7-1.3-9.1-4.9h-0.1l-0.4,4.2h-8c0.1-2,0.2-5.7,0.2-9.1v-35H99.5z M109,77.1c0,0.6,0.1,1.2,0.2,1.7c0.6,2.5,2.8,4.5,5.5,4.5
		c4,0,6.5-3.1,6.5-8.6c0-4.7-2.1-8.5-6.5-8.5c-2.5,0-4.9,1.9-5.5,4.7c-0.1,0.6-0.2,1.1-0.2,1.7V77.1z"/>
	<path class="st6" d="M162,82.7c0,2.9,0.1,5.7,0.5,7.3H154l-0.6-3h-0.2c-2,2.4-5.1,3.7-8.7,3.7c-6.2,0-9.8-4.5-9.8-9.3
		c0-7.9,7.1-11.6,17.8-11.6v-0.4c0-1.6-0.9-3.9-5.5-3.9c-3.1,0-6.4,1.1-8.4,2.2l-1.7-6c2.1-1.2,6.3-2.7,11.8-2.7
		c10.1,0,13.3,6,13.3,13.1L162,82.7L162,82.7z M152.9,75.7c-5,0-8.8,1.2-8.8,4.8c0,2.4,1.6,3.6,3.7,3.6c2.3,0,4.3-1.6,4.9-3.5
		c0.1-0.5,0.2-1.1,0.2-1.6L152.9,75.7L152.9,75.7z"/>
	<path class="st6" d="M169.5,45.9h9.4V90h-9.4V45.9z"/>
</g>
<g>
	<path class="st6" d="M300.6,47.3h25.6v7.8h-16.1v9.6h15v7.7h-15v16.8h-9.4V47.3H300.6z"/>
	<path class="st6" d="M336.4,54.9c-3.2,0-5.2-2.2-5.2-5c0-2.9,2.1-5,5.3-5c3.2,0,5.2,2.2,5.3,5C341.8,52.6,339.8,54.9,336.4,54.9
		L336.4,54.9z M331.8,89.2V58.8h9.4v30.4H331.8z"/>
	<path class="st6" d="M348.8,68.5c0-3.8-0.1-7-0.2-9.7h8.2l0.4,4.2h0.2c1.2-2,4.3-4.9,9.4-4.9c6.2,0,10.9,4.2,10.9,13.1v18h-9.4
		V72.4c0-3.9-1.4-6.6-4.8-6.6c-2.6,0-4.2,1.8-4.8,3.5c-0.2,0.6-0.3,1.5-0.3,2.4v17.5H349V68.5H348.8z"/>
	<path class="st6" d="M410.5,81.9c0,2.9,0.1,5.7,0.5,7.3h-8.5l-0.6-3h-0.2c-2,2.4-5.1,3.7-8.7,3.7c-6.2,0-9.8-4.5-9.8-9.3
		c0-7.9,7.1-11.6,17.8-11.6v-0.4c0-1.6-0.9-3.9-5.5-3.9c-3.1,0-6.4,1.1-8.4,2.2l-1.7-6c2.1-1.2,6.3-2.7,11.8-2.7
		c10.1,0,13.3,6,13.3,13.1L410.5,81.9L410.5,81.9z M401.4,74.9c-5,0-8.8,1.2-8.8,4.8c0,2.4,1.6,3.6,3.7,3.6c2.3,0,4.3-1.6,4.9-3.5
		c0.1-0.5,0.2-1.1,0.2-1.6L401.4,74.9L401.4,74.9z"/>
	<path class="st6" d="M418.1,68.5c0-3.8-0.1-7-0.2-9.7h8.2l0.4,4.2h0.2c1.2-2,4.3-4.9,9.4-4.9c6.2,0,10.9,4.2,10.9,13.1v18h-9.4
		V72.4c0-3.9-1.4-6.6-4.8-6.6c-2.6,0-4.2,1.8-4.8,3.5c-0.2,0.6-0.3,1.5-0.3,2.4v17.5h-9.4V68.5H418.1z"/>
	<path class="st6" d="M477.3,88.5c-1.7,0.8-4.8,1.4-8.5,1.4c-9.8,0-16.1-6-16.1-15.6c0-8.9,6.1-16.2,17.4-16.2
		c2.5,0,5.2,0.4,7.2,1.2l-1.5,7c-1.1-0.5-2.8-0.9-5.3-0.9c-5,0-8.2,3.5-8.1,8.5c0,5.6,3.7,8.6,8.3,8.6c2.2,0,4-0.4,5.4-1L477.3,88.5
		z"/>
	<path class="st6" d="M489.1,77c0.3,4,4.2,5.8,8.6,5.8c3.2,0,5.8-0.4,8.4-1.3l1.2,6.4c-3.1,1.3-6.9,1.9-11,1.9
		c-10.3,0-16.2-6-16.2-15.5c0-7.7,4.8-16.2,15.4-16.2c9.8,0,13.6,7.6,13.6,15.2c0,1.6-0.2,3-0.3,3.8L489.1,77z M500.2,70.5
		c0-2.2-1-6.2-5.3-6.2c-4,0-5.7,3.7-5.9,6.2H500.2z"/>
</g>
<g>
	<path class="st6" d="M420.4,129l-0.6-13.3c-0.3-5.6-0.4-9.6-0.3-12.1h-0.2c-0.8,3.8-1.6,7.4-2.5,10.8l-3.8,14.5h-2.3l-3.6-13.9
		c-1.1-4.1-1.9-7.9-2.6-11.4h-0.1c0,1.8-0.1,5.9-0.4,12.4l-0.6,13.1h-3.2l1.8-31h3.9l3.6,14.2c1.2,4.7,2.1,8.3,2.5,10.7h0.1
		c0.4-2.5,1.2-6.1,2.3-10.7L418,98h4l1.8,31H420.4z"/>
	<path class="st6" d="M434.6,106.5c2.1,0,3.8,1,5.2,2.9c1.3,2,2,4.8,2,8.5c0,4-0.7,6.9-2.2,8.7s-3.2,2.8-5.2,2.8
		c-2.1,0-3.8-1-5.2-2.9c-1.3-1.9-2-4.8-2-8.5c0-3.8,0.7-6.7,2.2-8.6C430.7,107.4,432.5,106.5,434.6,106.5z M436.3,110.1
		c-0.5-0.6-1.1-0.8-1.9-0.8c-0.7,0-1.4,0.3-1.9,0.8c-0.5,0.6-0.9,1.3-1.2,2.2c-0.2,0.9-0.4,1.8-0.5,2.7c-0.1,0.9-0.2,1.8-0.2,2.8
		c0,1,0.1,2,0.2,2.9c0.1,0.9,0.3,1.8,0.6,2.8c0.3,0.9,0.7,1.6,1.2,2.2c0.5,0.5,1.2,0.8,2,0.8c1,0,1.7-0.5,2.3-1.5
		c0.6-1,1-2.1,1.1-3.3c0.2-1.2,0.3-2.5,0.3-3.9c0-1-0.1-1.9-0.2-2.8c-0.1-0.9-0.3-1.8-0.6-2.7C437.2,111.4,436.8,110.7,436.3,110.1z
		"/>
	<path class="st6" d="M456,125.8l0.5,2.7c-1,0.6-2.2,0.8-3.7,0.8c-2.5,0-4.5-1-5.9-2.9c-1.5-1.9-2.2-4.7-2.2-8.3
		c0-3.3,0.8-6.1,2.4-8.3c1.6-2.2,3.7-3.3,6.4-3.3c1.3,0,2.3,0.2,3.1,0.7L456,110c-0.8-0.4-1.6-0.6-2.5-0.6c-1.7,0-3,0.8-3.8,2.5
		c-0.9,1.7-1.3,3.7-1.3,6.1c0,2.6,0.5,4.6,1.4,6.1c0.9,1.5,2.2,2.2,3.8,2.2C454.4,126.4,455.3,126.2,456,125.8z"/>
	<path class="st6" d="M459.6,106.8h3.4v9.7h0.5l5.8-9.7h3.9l-6.9,10c2.6,0.4,4.4,2.5,5.4,6.3c0.9,3.1,1.5,5,1.8,5.9H470
		c-0.3-0.7-0.8-2.5-1.6-5.2c-0.4-1.6-1-2.8-1.8-3.6c-0.7-0.8-1.8-1.2-3.2-1.2H463v10h-3.4V106.8z"/>
	<path class="st6" d="M476.5,129.1v-22.2c1.6-0.3,3.3-0.5,5-0.5c1,0,2,0.1,2.9,0.3c0.9,0.2,1.8,0.4,2.6,0.8c0.8,0.4,1.5,1,2,1.7
		c0.5,0.8,0.8,1.7,0.8,2.7c0,1.3-0.4,2.4-1.2,3.3c-0.8,0.9-1.9,1.6-3.2,1.9v0.1c1.7,0.3,3,0.9,3.9,1.9c0.9,1,1.4,2.2,1.4,3.7
		c0,1.2-0.3,2.3-0.9,3.2c-0.6,0.9-1.4,1.6-2.4,2c-1,0.5-2,0.8-3.1,1c-1.1,0.2-2.2,0.3-3.3,0.3C479.5,129.4,477.9,129.3,476.5,129.1z
		 M479.9,118.7v8c0.8,0.1,1.4,0.1,1.8,0.1c1.5,0,2.8-0.3,3.9-0.9c1-0.6,1.6-1.6,1.6-3.1c0-1.4-0.6-2.4-1.7-3.1c-1.1-0.7-2.5-1-4-1
		H479.9z M480,109.2v7h1.6c1.2,0,2.3-0.3,3.3-1c1-0.7,1.5-1.6,1.5-2.7c0-2.3-1.5-3.4-4.6-3.4C481.3,109,480.7,109.1,480,109.2z"/>
	<path class="st6" d="M506.3,114.3v9.7c0,2.2,0.1,3.9,0.2,5.1h-3.2l-0.2-2.3H503c-1,1.8-2.5,2.7-4.5,2.7c-1.5,0-2.8-0.6-3.7-1.7
		c-1-1.2-1.5-2.7-1.5-4.6c0-2.6,0.9-4.6,2.7-6c1.8-1.4,4.1-2.1,6.8-2.1v-0.7c0-1.6-0.3-2.9-0.8-3.7c-0.5-0.9-1.4-1.3-2.7-1.3
		c-1.4,0-2.6,0.4-3.7,1.1l-0.8-2.5c1.4-1,3.1-1.5,5.2-1.5C504.2,106.5,506.3,109.1,506.3,114.3z M502.9,122v-4.5
		c-4.1,0-6.1,1.7-6.1,5.2c0,1.4,0.3,2.3,0.8,3c0.5,0.6,1.2,1,1.9,1c0.8,0,1.5-0.3,2.1-0.9c0.6-0.6,1-1.4,1.2-2.5
		C502.8,122.9,502.9,122.5,502.9,122z"/>
</g>
</svg>
