<?xml version="1.0" encoding="utf-8"?>
<!-- Generator: Adobe Illustrator 26.2.1, SVG Export Plug-In . SVG Version: 6.00 Build 0)  -->
<svg version="1.1" id="flag-icon-css-ki" xmlns="http://www.w3.org/2000/svg" xmlns:xlink="http://www.w3.org/1999/xlink" x="0px"
	 y="0px" viewBox="0 0 640 480" style="enable-background:new 0 0 640 480;" xml:space="preserve">
<style type="text/css">
	.st0{fill:#FF0000;}
	.st1{fill:#FFFF00;}
</style>
<g>
	<path class="st0" d="M0,0h640v480H0V0z"/>
	<g>
		<path class="st1" d="M282.7,208.9c-8.8-5.5-18-10.1-27.6-13.8c-8.3,12-12.9,26.7-12.9,42.4c0,7.8,1.4,15.2,3.2,22.6
			c4.1-9.2,9.2-18,15.2-26.7C267.5,224.6,274.8,216.3,282.7,208.9L282.7,208.9z M259.6,189.5c10.1,3.7,20.3,8.3,30,13.8
			c2.3-1.8,4.1-3.2,6.5-5.1c-10.1-5.5-20.7-10.1-31.8-13.4C262.4,186.3,261,188.2,259.6,189.5z M268.9,180.3
			c12,3.2,23.5,7.4,34.1,13.4c2.3-1.4,5.1-3.2,7.4-4.6c-11.5-6-23.5-10.1-35.9-12.9C272.5,177.1,270.7,178.5,268.9,180.3
			L268.9,180.3z M279.9,172.5c12.9,2.8,25.8,6.9,37.8,12.9c12-6,24.9-10.1,37.8-12.9c-11.1-6.5-24-10.1-37.8-10.1
			C303.9,162.4,291.4,166,279.9,172.5L279.9,172.5z M361.5,176.2c-12.4,2.8-24.4,7.4-35.9,12.9c2.3,1.4,5.1,2.8,7.4,4.6
			c11.1-5.5,22.1-10.1,34.1-13.4C365.2,178.5,363.3,177.1,361.5,176.2L361.5,176.2z M371.6,184.9c-11.1,3.2-21.7,7.8-31.8,13.4
			c2.3,1.4,4.6,3.2,6.5,5.1c9.2-5.5,19.4-10.1,29.5-13.8C374.8,188.2,373.5,186.3,371.6,184.9L371.6,184.9z M380.4,195.5
			c-9.7,3.7-18.9,8.3-27.6,13.4c8.3,7.4,15.2,15.7,22.1,24.9c6,8.3,11.1,17.5,15.2,26.7c2.3-7.4,3.2-14.7,3.2-22.6
			C393.3,222.3,388.7,207.5,380.4,195.5L380.4,195.5z M373.9,247.1c-7.8-12.9-17.5-24.4-28.1-34.1c-2.3,1.8-5.1,3.2-7.4,5.1
			c18,16.6,32.3,37.8,41.5,62.2c2.3-3.2,4.1-6.5,5.5-9.7C382.7,262.8,378.5,255,373.9,247.1z M332,213c2.3-1.8,4.6-3.2,7.4-5.1
			c-2.3-1.8-4.1-3.7-6.5-5.5c-2.3,1.4-5.1,3.2-7.4,5.1l0,0C327.4,209.4,329.7,211.2,332,213L332,213z M317.7,202.4
			c2.3-1.4,5.1-3.2,7.4-4.6c-2.3-1.4-5.1-3.2-7.4-4.6c-2.3,1.4-5.1,3.2-7.4,4.6C313.1,199.2,315.4,200.6,317.7,202.4z M310.8,207.5
			c-2.3-1.8-5.1-3.2-7.4-5.1c-2.3,1.8-4.6,3.2-6.9,5.1c2.3,1.8,5.1,3.2,7.4,5.1C306.2,210.7,308.5,209.4,310.8,207.5L310.8,207.5z
			 M317.7,212.6c-2.3,1.8-4.6,3.7-6.9,5.5c2.3,1.8,4.6,3.7,6.9,6c2.3-1.8,4.6-4.1,6.9-6C322.3,216.3,320.5,214.4,317.7,212.6z
			 M317.7,237.5c-10.1,11.1-18.9,23.5-26.3,37.3c-5.1,9.2-8.8,18.9-11.5,28.6c11.1,6.5,24,10.1,37.8,10.1c13.8,0,26.7-3.7,37.8-10.1
			c-2.8-9.7-6.9-19.4-11.5-28.6C336.6,261,327.8,248.5,317.7,237.5L317.7,237.5z M273.9,287.7c8.8-22.1,21.2-41,36.9-57.1
			c-2.3-2.3-4.6-4.1-6.9-6.5c-18,17.5-32.7,39.6-41.5,65c2.3,2.8,5.1,5.5,8.3,7.8C271.6,293.7,273,290.9,273.9,287.7L273.9,287.7z
			 M324.6,230.6c15.7,16.1,28.6,35,37.3,57.1c1.4,3.2,2.3,6,3.2,9.2c2.8-2.3,5.5-5.1,8.3-7.8c-9.2-25.3-23.5-47-41.9-65
			C329.2,226.4,326.9,228.7,324.6,230.6L324.6,230.6z M255.5,280.8c9.2-24.4,23.5-45.2,41.5-61.7c-2.3-1.8-4.6-3.7-7.4-5.5
			c-10.6,9.7-20.3,21.2-28.1,34.1c-4.6,7.4-8.8,15.2-12,23.5C251.3,274.3,253.6,277.6,255.5,280.8L255.5,280.8z M318.2,155.9
			c46.5,0,84.8,38.2,84.8,84.8s-38.2,84.8-84.8,84.8s-84.8-38.2-84.8-84.8S271.6,155.9,318.2,155.9z M355.5,137.5
			c-2.3,2.8-5.1,6.5-7.8,12c-0.5-1.4-0.5-3.2-0.5-5.1c0.5-6,2.3-9.7,5.5-14.7c0.9-1.8,2.3-3.2,2.8-5.5c1.8-6,1.4-13.8-2.8-20.3
			c0.5,6.9-1.4,12.9-3.7,16.6c-0.5,0.5-0.9,0.9-1.4,1.4c-2.3,2.3-5.5,5.1-8.8,11.1c-1.8,3.2-4.1,6.9-6,12.9
			c-0.9-1.4-0.9-2.8-0.9-4.6c-0.5-6.5,0.9-10.1,3.2-15.7c0.9-1.8,1.4-3.7,1.8-6c0.9-6-0.5-13.8-6-19.4c1.8,6.9,0.5,12.9-1.4,17
			c-0.5,0.5-0.5,1.4-0.9,1.8c-2.3,2.8-4.1,6-7.4,12c-1.4,3.7-2.8,7.8-3.7,13.8c-0.9-1.4-1.4-2.8-1.8-4.6c-1.4-6-0.9-10.1,0.5-16.1
			c0.5-1.8,0.9-3.7,0.9-6c0-6.5-2.8-13.8-8.8-18.4c2.8,6.5,2.8,12.9,1.4,17c0.5,0.5,0,1.4,0,1.8c-1.4,3.2-3.2,6.5-5.1,12.9
			c-0.9,3.7-1.4,8.3-1.4,14.3c-0.9-0.9-1.8-2.3-2.3-4.1c-2.3-6-2.3-9.7-1.8-16.1c0-2.3,0.5-4.1,0-6c-0.9-6.5-5.1-12.9-11.5-16.6
			c3.7,6,4.6,12,4.1,16.6c0,0.5-0.5,1.4-0.5,1.8c-0.9,3.2-2.3,6.9-3.2,13.8c-0.5,3.7-0.5,8.3,0.9,14.3c-1.4-0.9-2.3-2.3-3.2-3.7
			c-3.2-5.5-3.7-9.2-4.1-15.7c0-2.3-0.5-4.1-0.9-6c-1.8-6-6.9-12-13.8-14.7c4.6,5.1,6.5,11.1,6.5,15.7c0,0.5,0,1.4,0,1.8
			c-0.5,3.7-1.4,7.4-0.9,13.8c0.5,3.7,0.9,8.3,3.2,13.8c-1.4-0.5-2.8-1.8-3.7-3.2c-3.7-5.1-5.1-8.8-6.5-14.7c-0.5-2.3-0.9-3.7-1.8-6
			c-2.8-5.5-8.8-11.1-16.1-12c5.5,4.6,8.3,10.1,8.8,14.3c0,0.5,0,1.4,0,1.8c0,3.7,0,7.4,1.4,13.8c0.9,3.7,2.3,7.8,5.1,13.4
			c-1.4-0.5-2.8-1.4-4.1-2.8c-4.6-4.1-6.5-7.8-8.8-13.4c-0.9-1.8-1.4-3.7-2.8-5.5c-3.7-5.1-10.1-9.2-18-9.2c6,3.7,9.7,8.8,11.1,12.9
			c0,0.5,0.5,1.4,0.5,1.8c0.5,3.7,0.9,7.4,3.7,13.8c1.4,3.2,3.2,7.4,7.4,12.4c-1.4,0-3.2-0.9-4.6-1.8c-5.1-3.2-7.8-6.5-11.1-12
			c-0.9-1.8-1.8-3.2-3.7-5.1c-4.1-4.1-11.5-7.8-19.4-6.5c6.5,2.8,11.1,7.4,12.9,11.1c0.5,0.5,0.5,1.4,0.9,1.8
			c1.4,3.2,2.3,6.9,5.5,12.9c1.8,3.2,4.6,6.9,9.2,11.1c-1.4,0-3.2-0.5-4.6-1.4c-5.5-2.8-8.8-5.5-12.4-10.1c-1.4-1.4-2.8-3.2-4.1-4.1
			c-5.1-3.7-12.9-5.5-19.8-3.2c6.9,1.4,12,5.5,14.3,8.8c0.5,0.5,0.9,0.9,0.9,1.8c1.8,3.2,3.2,6.5,7.8,12c2.3,2.8,5.5,6,10.6,9.7
			c-1.4,0.5-3.2,0-5.1-0.5c-6-1.4-9.2-3.7-13.8-7.8c-1.4-1.4-3.2-2.3-5.1-3.7c-5.5-2.8-13.4-3.7-20.3-0.5c6.9,0.5,12.4,3.2,15.7,6.5
			c0.5,0.5,0.9,0.9,1.4,1.4c2.3,2.8,4.1,6,9.2,10.6c2.8,2.3,6.5,5.1,12,7.8c-1.4,0.5-3.2,0.5-5.1,0c-6.5-0.5-9.7-2.3-15.2-5.5
			c-1.8-0.9-3.2-2.3-5.5-2.8c-6-1.8-13.8-1.4-19.8,2.8c6.9-0.5,12.9,1.4,16.6,3.7c0.5,0.5,0.9,0.9,1.4,1.4c2.8,2.3,5.1,5.5,11.1,8.8
			c3.2,1.8,7.4,4.1,12.9,6c-1.4,0.9-2.8,0.9-4.6,0.9c-6.5,0-10.1-0.9-15.7-3.2c-1.8-0.9-3.7-1.4-6-1.8c-6-0.9-13.8,0.5-19.4,6
			c6.9-1.8,12.9-0.5,17,1.4c0.5,0.5,1.4,0.5,1.8,0.9c2.8,2.3,6,4.1,12,7.4c3.2,1.4,7.4,2.8,13.8,3.7c-1.4,0.9-2.8,1.4-4.6,1.8
			c-6.5,1.4-10.1,0.9-16.1-0.5c-1.8-0.5-3.7-0.9-6-0.9c-6.5,0-13.8,2.8-18,8.8c6.5-2.8,12.4-2.8,17-1.4c0.5,0.5,1.4,0.5,1.8,0.9
			c3.2,1.4,6.5,3.2,12.9,5.1c3.7,0.9,7.8,1.4,14.3,1.4c-0.9,0.9-2.3,1.8-4.1,2.3c-6,2.3-9.7,2.3-16.1,1.8c-2.3,0-4.1-0.5-6,0
			c-6,0.9-12.9,5.1-16.6,12c6-3.7,12-4.6,16.6-4.1c0.5,0,1.4,0.5,1.8,0.5c3.2,1.4,6.9,2.3,13.8,3.2c3.7,0.5,8.3,0.5,14.3-0.9
			c-0.9,1.4-2.3,2.3-3.7,3.2c-5.5,3.2-9.2,3.7-15.7,4.1c-2.3,0.5-4.1,0.5-6,0.9c-6,1.8-12,6.9-14.7,13.8c5.5-4.6,11.1-6.5,15.7-6.5
			c0.5,0,1.4,0,1.8,0c3.2,0.5,7.4,1.4,13.8,0.9c3.7-0.5,8.3-0.9,13.8-3.2c-0.5,1.4-1.8,2.8-3.2,3.7c-5.1,3.7-8.8,5.1-14.7,6.5
			c-1.8,0.5-3.7,0.9-5.5,1.8c-5.5,2.8-11.1,8.8-12,16.1c4.1-5.5,10.1-8.3,14.3-8.8c0.5,0,1.4,0,1.8,0c3.7,0,7.4,0,13.8-1.4
			c3.7-0.9,7.8-2.3,13.4-5.1c-0.5,1.4-1.4,2.8-2.8,4.1c-4.1,4.6-7.8,6.5-13.4,8.8c-1.8,0.9-3.7,1.4-5.5,2.8
			c-5.1,3.7-9.2,10.1-9.7,18c3.7-6,8.8-9.7,12.9-11.1c0.5,0,1.4-0.5,1.8-0.5c3.7-0.5,7.4-0.9,13.8-3.7c3.2-1.4,7.4-3.2,12.4-7.4
			c-0.5,1.4-0.9,2.8-2.3,4.1c-3.2,5.1-6.5,7.8-12,11.1c-1.8,0.9-3.2,1.8-5.1,3.7c-4.1,4.1-7.4,11.5-6.5,19.4
			c2.3-6.5,6.9-11.1,11.1-12.9c0.5-0.5,1.4-0.5,1.8-0.9c3.2-0.9,6.9-2.3,12.9-5.5c3.2-1.8,6.9-4.6,11.1-9.2c0,1.4-0.5,3.2-1.4,4.6
			c-2.8,5.5-5.5,8.8-10.1,12.4c-1.4,1.4-3.2,2.8-4.1,4.1c-3.7,5.1-5.5,12.9-3.2,19.8c1.4-6.9,5.1-12,8.8-14.3
			c0.5-0.5,0.9-0.9,1.4-0.9c3.2-1.8,6.5-3.2,12-7.8c2.8-2.3,6-5.5,9.7-10.6c0.5,1.4,0,3.2-0.5,5.1c-1.8,6-3.7,9.2-7.8,13.8
			c-1.4,1.4-2.3,3.2-3.2,5.1c-2.8,5.5-3.7,13.4-0.5,20.3c0.5-6.9,3.2-12.4,6.5-15.7c0.5-0.5,0.9-0.9,1.4-1.4c2.8-2.3,6-4.1,10.6-9.2
			c2.3-2.8,5.1-6.5,7.8-12c0.5,1.4,0.5,3.2,0.5,5.1c-0.9,6.5-2.3,9.7-5.5,15.2c-1.4,1.8-2.3,3.2-2.8,5.5c-1.8,6-1.4,13.8,2.8,20.3
			c-0.5-6.9,1.4-12.9,3.7-16.6c0.5-0.5,0.9-0.9,1.4-1.4c2.3-2.8,5.5-5.1,9.2-11.1c1.8-3.2,4.1-7.4,5.5-12.9c0.9,1.4,0.9,2.8,0.9,4.6
			c0.5,6.5-0.9,10.1-3.2,15.7c-0.9,1.8-1.4,3.7-1.8,6c-0.9,6,0.5,13.8,6,19.4c-1.8-6.9-0.5-12.9,1.4-17c0.5-0.5,0.5-1.4,0.9-1.8
			c2.3-2.8,4.6-6,7.4-12c1.4-3.2,2.8-7.4,3.7-13.8c0.9,1.4,1.4,2.8,1.8,4.6c1.4,6.5,0.9,10.1-0.5,16.1c-0.5,1.8-0.9,3.7-0.9,6
			c0,6.5,2.8,13.8,9.2,18c-2.8-6.5-2.8-12.4-1.4-17c0-0.5,0.5-1.4,0.5-1.8c1.4-3.2,3.2-6.5,5.1-12.9c0.9-3.7,1.4-7.8,1.4-14.3
			c1.4,0.9,1.8,2.3,2.3,4.1c2.3,6,2.3,9.7,1.8,16.1c-0.5,1.8-0.5,3.7,0,6c0.9,6.5,5.1,12.9,11.5,16.6c-3.7-6-4.6-12-4.1-16.6
			c0-0.5,0-1.4,0.5-1.8c0.9-3.2,2.3-6.9,3.2-13.8c0-3.7,0.5-8.3-0.9-14.3c1.4,0.9,2.3,2.3,3.2,3.7c3.2,5.5,3.7,9.2,4.1,15.7
			c0,2.3,0.5,4.1,0.9,6c1.8,6,6.9,12,14.3,14.7c-4.6-5.5-6.5-11.1-6.5-15.7c0-0.5,0-1.4,0-1.8c0.5-3.2,1.4-7.4,0.9-13.8
			c-0.5-3.7-0.9-8.3-2.8-13.8c1.4,0.5,2.3,1.8,3.7,3.2c3.7,5.1,5.5,8.8,6.9,14.7c0.5,1.8,0.9,3.7,1.8,5.5c2.8,5.5,8.8,11.1,16.1,12
			c-5.5-4.1-8.3-10.1-9.2-14.3c0-0.5,0-1.4,0-1.8c0-3.7,0-7.4-1.4-13.8c-0.9-3.7-2.3-7.8-5.5-13.4c1.4,0.5,2.8,1.4,4.1,2.8
			c4.6,4.1,6.5,7.8,9.2,13.4c0.9,1.8,1.4,3.7,2.8,5.5c3.7,5.1,10.1,9.2,18,9.7c-6-3.7-9.7-8.8-11.1-12.9c-0.5-0.5-0.5-1.4-0.5-1.8
			c-0.5-3.7-0.9-7.4-3.7-13.8c-1.4-3.2-3.2-7.4-7.4-12.4c1.4,0,3.2,0.9,4.6,1.8c5.1,3.2,7.8,6.5,11.1,12c0.9,1.8,2.3,3.2,3.7,5.1
			c4.1,4.1,11.5,7.4,19.4,6.5c-6.5-2.3-11.1-6.9-12.9-11.1c-0.5-0.5-0.5-1.4-0.9-1.8c-1.4-3.2-2.3-6.9-5.5-12.9
			c-1.8-3.2-4.6-6.9-9.2-11.1c1.4,0,3.2,0.5,4.6,1.4c5.5,2.8,8.8,5.5,12.4,10.1c1.4,1.4,2.3,3.2,4.1,4.1c5.1,3.7,12.9,5.5,19.8,3.7
			c-6.9-1.4-12-5.5-14.3-8.8c-0.5-0.5-0.9-0.9-0.9-1.4c-1.8-3.2-3.2-6.5-7.4-12c-2.3-2.8-5.5-6-10.6-9.7c1.4-0.5,3.2,0,5.1,0.5
			c6,1.8,9.2,4.1,13.8,7.8c1.4,1.4,3.2,2.3,5.1,3.2c5.5,2.8,13.4,3.7,20.3,0.5c-6.9-0.5-12.4-3.2-15.7-6.5c-0.5-0.5-0.9-0.9-1.4-1.4
			c-2.3-2.8-4.1-6-9.2-10.6c-2.8-2.3-6.5-5.1-12-7.8c1.4-0.5,3.2-0.5,5.1-0.5c6,0.9,9.7,2.3,14.7,5.5c1.8,0.9,3.2,1.8,5.5,2.8
			c6,1.8,13.8,1.4,20.3-2.8c-6.9,0.5-12.9-1.4-16.6-3.7c-0.5-0.5-0.9-0.9-1.4-1.4c-2.3-2.3-5.1-5.5-11.1-9.2
			c-3.2-1.8-6.9-4.1-12.9-5.5c1.4-0.9,3.2-0.9,4.6-0.9c6.5-0.5,10.1,0.9,15.7,3.2c1.8,0.9,3.7,1.4,6,1.8c6,0.9,13.8-0.5,19.4-6
			c-6.9,1.8-12.9,0.5-17-1.4c-0.5-0.5-1.4-0.5-1.8-0.9c-2.8-2.3-6-4.1-12-7.4c-3.2-1.4-7.8-2.8-13.8-3.7c1.4-0.9,2.8-1.4,4.6-1.8
			c6-1.4,10.1-0.9,16.1,0.5c1.8,0.5,3.7,0.9,6,0.9c6.5,0,13.8-2.8,18.4-8.8c-6.5,2.8-12.9,2.8-17,1.4c-0.5,0-1.4-0.5-1.8-0.5
			c-3.2-1.4-6.5-3.2-12.9-5.1c-3.7-0.9-7.8-1.4-14.3-1.4c0.9-1.4,2.3-1.8,4.1-2.3c6-2.3,10.1-2.3,16.1-1.8c2.3,0.5,4.1,0.5,6,0
			c6-0.9,12.9-5.1,16.6-11.5c-6,3.7-12,4.6-16.6,4.1c-0.5,0-1.4-0.5-1.8-0.5c-3.2-0.9-6.9-2.3-13.8-3.2c-3.7,0-8.3-0.5-14.3,0.9
			c0.9-1.4,2.3-2.3,3.7-3.2c5.5-3.2,9.2-3.7,15.2-4.1c2.3,0,4.1-0.5,6-0.9c6-1.8,12-6.9,14.7-14.3c-5.1,4.6-11.1,6.5-15.7,6.5
			c-0.5,0-1.4,0-1.8,0c-3.7-0.5-7.4-1.4-13.8-0.9c-3.7,0.5-8.3,0.9-13.8,3.2c0.5-1.4,1.8-2.8,3.2-3.7c5.1-3.7,8.8-5.5,14.7-6.9
			c2.3-0.5,3.7-0.9,6-1.8c5.5-2.8,11.1-8.8,12-16.1c-4.6,5.5-10.1,8.3-14.3,9.2c-0.5,0-1.4,0-1.8,0c-3.7,0-7.4,0-13.8,1.4
			c-3.7,0.9-7.8,2.3-13.4,5.5c0.5-1.4,1.4-2.8,2.8-4.1c4.1-4.6,7.8-6.5,13.4-9.2c1.8-0.9,3.7-1.4,5.5-2.8c5.1-3.7,9.2-10.1,9.2-18
			c-3.7,6-8.8,9.7-12.9,11.1c-0.5,0.5-1.4,0.5-1.8,0.5c-3.7,0.5-7.4,0.9-13.8,3.7c-3.2,1.4-7.4,3.2-12.4,7.4c0-1.4,0.9-3.2,1.8-4.6
			c3.2-5.1,6.5-7.8,12-11.1c1.8-0.9,3.2-2.3,5.1-3.7c4.1-4.1,7.8-11.5,6.5-19.4c-2.8,6.5-7.4,11.1-11.1,12.9
			c-0.5,0.5-1.4,0.5-1.8,0.5c-3.2,1.4-6.9,2.3-12.9,5.5c-3.2,1.8-6.9,4.6-11.1,9.2c0-1.4,0.5-3.2,1.4-4.6c2.8-5.5,5.5-8.8,10.1-12.9
			c1.4-1.4,3.2-2.3,4.1-4.1c3.7-5.1,5.5-12.9,3.2-19.8c-1.4,6.9-5.5,12-8.8,14.3c-0.5,0.5-0.9,0.9-1.8,0.9c-3.2,1.8-6.5,3.2-12,7.4
			c-2.8,2.3-6,5.5-9.7,10.6c-0.5-1.4,0-3.2,0.5-5.1c1.8-6,3.7-9.2,7.8-13.8c1.4-1.4,2.8-2.8,3.7-5.1c2.8-5.5,3.7-13.4,0.5-20.3
			c-0.5,6.9-3.2,12.4-6.5,15.7c-0.5,0.5-0.9,0.9-1.4,1.4C363.3,130.1,360.1,132.4,355.5,137.5L355.5,137.5z"/>
	</g>
</g>
</svg>
