<?xml version="1.0" encoding="utf-8"?>
<!-- Generator: Adobe Illustrator 23.0.2, SVG Export Plug-In . SVG Version: 6.00 Build 0)  -->
<svg version="1.1" id="Layer_1" xmlns="http://www.w3.org/2000/svg" xmlns:xlink="http://www.w3.org/1999/xlink" x="0px" y="0px"
	 viewBox="0 0 30 30" style="enable-background:new 0 0 30 30;" xml:space="preserve">
<style type="text/css">
	.st0{fill:#FF8000;}
	.st1{fill:#FFFFFF;}
</style>
<circle class="st0" cx="15" cy="15" r="14.6"/>
<path class="st1" d="M20.2,7.2c0.8,0,1.5,0.3,2.1,0.9s0.9,1.3,0.9,2.1v10c0,0.8-0.3,1.5-0.9,2.1s-1.3,0.9-2.1,0.9h-2V17h2.1l0.3-2.4
	h-2.4V13c0-0.4,0.1-0.7,0.2-0.9c0.2-0.2,0.5-0.3,1-0.3h1.3V9.7c-0.4-0.1-1.1-0.1-1.8-0.1c-0.9,0-1.7,0.3-2.3,0.8
	c-0.6,0.6-0.8,1.3-0.8,2.3v1.8h-2.1v2.4h2.1v6.2h-5.5c-0.8,0-1.5-0.3-2.1-0.9s-0.9-1.3-0.9-2.1v-10c0-0.8,0.3-1.5,0.9-2.1
	s1.3-0.9,2.1-0.9h9.9C20.2,7.1,20.2,7.2,20.2,7.2z"/>
<text transform="matrix(1 0 0 1 -6.8071 -32.7775)" style="font-family:'FontAwesome'; font-size:12px;"></text>
</svg>
