<?xml version="1.0" encoding="utf-8"?>
<!-- Generator: Adobe Illustrator 23.0.1, SVG Export Plug-In . SVG Version: 6.00 Build 0)  -->
<svg version="1.1" id="Layer_1" xmlns="http://www.w3.org/2000/svg" xmlns:xlink="http://www.w3.org/1999/xlink" x="0px" y="0px"
	 viewBox="0 0 30 30" style="enable-background:new 0 0 30 30;" xml:space="preserve">
<style type="text/css">
	.st0{fill:#CE8500;}
	.st1{fill:#FFFFFF;}
</style>
<circle class="st0" cx="15" cy="15" r="14.6"/>
<path d="M-67.3,10.1v10c0,0.8-0.3,1.5-0.9,2.1c-0.6,0.6-1.3,0.9-2.1,0.9h-10c-0.8,0-1.5-0.3-2.1-0.9c-0.6-0.6-0.9-1.3-0.9-2.1v-10
	c0-0.8,0.3-1.5,0.9-2.1c0.6-0.6,1.3-0.9,2.1-0.9h10c0.8,0,1.5,0.3,2.1,0.9C-67.6,8.6-67.3,9.3-67.3,10.1z M-69.5,18
	c0-1.2-0.1-2.1-0.2-2.7c-0.1-0.3-0.2-0.6-0.4-0.8s-0.5-0.3-0.8-0.4c-0.9-0.1-2.4-0.2-4.3-0.2c-1.9,0-3.3,0.1-4.3,0.2
	c-0.3,0-0.6,0.2-0.8,0.4s-0.4,0.5-0.4,0.8c-0.1,0.6-0.2,1.5-0.2,2.7c0,1.2,0.1,2.1,0.2,2.7c0.1,0.3,0.2,0.6,0.4,0.8
	c0.2,0.2,0.5,0.3,0.8,0.4c0.9,0.1,2.4,0.2,4.3,0.2c1.9,0,3.3-0.1,4.3-0.2c0.3,0,0.6-0.2,0.8-0.4c0.2-0.2,0.4-0.5,0.4-0.8
	C-69.6,20.1-69.5,19.2-69.5,18z M-77.7,15.3v0.7h-0.8v4.4h-0.8v-4.4h-0.8v-0.7H-77.7z M-77.4,11.2l0.9-3.1h-0.8l-0.5,2l-0.5-2h-0.8
	c0,0.2,0.1,0.4,0.2,0.7c0.1,0.3,0.2,0.6,0.2,0.7c0.2,0.7,0.4,1.3,0.5,1.6v2.1h0.8V11.2z M-75.6,16.6v3.8h-0.7V20
	c-0.3,0.3-0.5,0.5-0.8,0.5c-0.2,0-0.4-0.1-0.4-0.3c0-0.1-0.1-0.3-0.1-0.6v-3h0.7v2.8c0,0.2,0,0.3,0,0.3c0,0.1,0.1,0.2,0.2,0.2
	c0.1,0,0.3-0.1,0.4-0.3v-2.9H-75.6z M-74.4,12.1v-1.3c0-0.4-0.1-0.7-0.2-0.9c-0.2-0.3-0.5-0.4-0.8-0.4c-0.4,0-0.6,0.1-0.8,0.4
	c-0.1,0.2-0.2,0.5-0.2,0.9v1.3c0,0.4,0.1,0.7,0.2,0.9c0.2,0.3,0.5,0.4,0.8,0.4c0.3,0,0.6-0.1,0.8-0.4
	C-74.4,12.8-74.4,12.5-74.4,12.1z M-75.1,10.6v1.6c0,0.4-0.1,0.5-0.3,0.5c-0.2,0-0.3-0.2-0.3-0.5v-1.6c0-0.4,0.1-0.5,0.3-0.5
	C-75.2,10-75.1,10.2-75.1,10.6z M-73,17.8v1.5c0,0.4,0,0.6-0.1,0.8c-0.1,0.3-0.3,0.4-0.6,0.4c-0.2,0-0.5-0.1-0.7-0.4v0.4H-75v-5.1
	h0.7V17c0.2-0.3,0.5-0.4,0.7-0.4c0.3,0,0.5,0.1,0.6,0.4C-73,17.2-73,17.4-73,17.8z M-73.7,19.4v-1.6c0-0.3-0.1-0.5-0.3-0.5
	c-0.1,0-0.2,0.1-0.3,0.2v2.3c0.1,0.1,0.2,0.2,0.3,0.2C-73.8,19.9-73.7,19.7-73.7,19.4z M-72.5,13.3h0.7V9.5h-0.7v2.9
	c-0.2,0.2-0.3,0.3-0.4,0.3c-0.1,0-0.2-0.1-0.2-0.2c0,0,0-0.1,0-0.3V9.5h-0.7v3c0,0.3,0,0.4,0.1,0.6c0.1,0.2,0.2,0.3,0.4,0.3
	c0.2,0,0.5-0.2,0.8-0.5V13.3z M-70.4,19.1L-70.4,19.1c0,0.3,0,0.4,0,0.5c0,0.2-0.1,0.3-0.2,0.4c-0.2,0.3-0.5,0.4-0.8,0.4
	c-0.4,0-0.6-0.1-0.8-0.4c-0.1-0.2-0.2-0.5-0.2-0.9v-1.3c0-0.4,0.1-0.7,0.2-0.9c0.2-0.3,0.5-0.4,0.8-0.4c0.4,0,0.6,0.1,0.8,0.4
	c0.1,0.2,0.2,0.5,0.2,0.9v0.8h-1.4v0.7c0,0.4,0.1,0.5,0.4,0.5c0.2,0,0.3-0.1,0.3-0.3c0,0,0,0,0-0.1c0,0,0-0.1,0-0.2s0-0.1,0-0.2
	H-70.4z M-71.8,18.1h0.7v-0.4c0-0.4-0.1-0.5-0.3-0.5c-0.2,0-0.3,0.2-0.3,0.5V18.1z"/>
<path class="st1" d="M22.9,10.1v10c0,0.8-0.3,1.5-0.9,2.1c-0.6,0.6-1.3,0.9-2.1,0.9H10c-0.8,0-1.5-0.3-2.1-0.9
	C7.3,21.6,7,20.9,7,20.1v-10C7,9.3,7.3,8.6,7.8,8C8.4,7.5,9.1,7.2,10,7.2h10c0.8,0,1.5,0.3,2.1,0.9C22.6,8.6,22.9,9.3,22.9,10.1z
	 M18.8,15.6c-0.1-0.1-0.2-0.2-0.3-0.3c-0.1-0.1-0.3-0.1-0.5-0.1c-0.2,0-0.4,0.1-0.6,0.3c-0.1,0.1-0.2,0.1-0.3,0.2
	c-0.1,0.1-0.4,0.2-0.8,0.3c-0.4,0.1-0.9,0.2-1.3,0.2c-0.5,0-0.9-0.1-1.3-0.2c-0.4-0.1-0.7-0.2-0.9-0.4l-0.3-0.2
	c-0.2-0.2-0.4-0.3-0.6-0.3c-0.2,0-0.4,0-0.5,0.1c-0.1,0.1-0.2,0.2-0.3,0.3c-0.2,0.3-0.2,0.6,0,0.8c0.1,0.2,0.4,0.5,0.9,0.8
	c0.6,0.4,1.4,0.6,2.3,0.7l-0.5,0.5c-1,1-1.6,1.6-2,2c-0.2,0.2-0.2,0.3-0.2,0.5s0.1,0.4,0.2,0.5l0.1,0.1c0.2,0.2,0.3,0.2,0.5,0.2
	c0.2,0,0.4-0.1,0.5-0.2l2-2c0.8,0.8,1.5,1.5,2,2c0.2,0.2,0.3,0.2,0.5,0.2c0.2,0,0.4-0.1,0.5-0.2l0.1-0.1c0.2-0.2,0.2-0.3,0.2-0.5
	s-0.1-0.4-0.2-0.5l-2-2l-0.5-0.5c1-0.1,1.8-0.3,2.3-0.7c0.5-0.3,0.8-0.6,0.9-0.8C19,16.2,19,15.9,18.8,15.6z M17.3,14.2
	c0.7-0.7,1-1.5,1-2.4c0-0.9-0.3-1.7-1-2.4c-0.7-0.7-1.4-1-2.4-1c-0.9,0-1.7,0.3-2.4,1c-0.7,0.7-1,1.4-1,2.4c0,0.9,0.3,1.7,1,2.4
	c0.7,0.7,1.4,1,2.4,1C15.9,15.2,16.7,14.9,17.3,14.2z M16.1,10.7c0.3,0.3,0.5,0.7,0.5,1.2c0,0.5-0.2,0.8-0.5,1.2
	c-0.3,0.3-0.7,0.5-1.2,0.5c-0.5,0-0.8-0.2-1.2-0.5c-0.3-0.3-0.5-0.7-0.5-1.2c0-0.5,0.2-0.8,0.5-1.2c0.3-0.3,0.7-0.5,1.2-0.5
	C15.4,10.2,15.8,10.4,16.1,10.7z"/>
</svg>
