<?xml version="1.0" encoding="utf-8"?>
<!-- Generator: Adobe Illustrator 23.0.3, SVG Export Plug-In . SVG Version: 6.00 Build 0)  -->
<svg version="1.1" id="Layer_1" xmlns="http://www.w3.org/2000/svg" xmlns:xlink="http://www.w3.org/1999/xlink" x="0px" y="0px"
	 viewBox="0 0 30 30" style="enable-background:new 0 0 30 30;" xml:space="preserve">
<style type="text/css">
	.st0{fill:#00B9FF;}
	.st1{fill:#FFFFFF;}
</style>
<circle class="st0" cx="15" cy="15" r="14.6"/>
<g>
	<path class="st1" d="M23.4,10.1c-0.5,0.7-1,1.2-1.6,1.7c0,0.1,0,0.2,0,0.4c0,0.9-0.1,1.7-0.4,2.6c-0.3,0.9-0.6,1.7-1.2,2.5
		c-0.5,0.8-1.1,1.5-1.9,2.1c-0.7,0.6-1.6,1.1-2.6,1.5c-1,0.4-2.1,0.6-3.3,0.6c-1.8,0-3.5-0.5-5-1.5c0.2,0,0.5,0,0.8,0
		c1.5,0,2.9-0.5,4.1-1.4c-0.7,0-1.3-0.2-1.9-0.7c-0.6-0.4-0.9-1-1.2-1.6c0.2,0,0.4,0.1,0.6,0.1c0.3,0,0.6,0,0.9-0.1
		c-0.8-0.2-1.4-0.5-1.9-1.1c-0.5-0.6-0.7-1.3-0.7-2.1v0c0.5,0.3,0.9,0.4,1.5,0.4c-0.4-0.3-0.8-0.7-1.1-1.2c-0.3-0.5-0.4-1-0.4-1.6
		c0-0.6,0.1-1.1,0.4-1.6c0.8,1,1.8,1.8,3,2.4c1.2,0.6,2.4,0.9,3.8,1c-0.1-0.3-0.1-0.5-0.1-0.7c0-0.9,0.3-1.7,1-2.3
		c0.6-0.6,1.4-1,2.3-1c0.9,0,1.7,0.3,2.4,1c0.7-0.1,1.4-0.4,2.1-0.8c-0.2,0.8-0.7,1.4-1.4,1.8C22.1,10.5,22.7,10.3,23.4,10.1z"/>
</g>
</svg>
