<?xml version="1.0" encoding="utf-8"?>
<!-- Generator: Adobe Illustrator 23.0.1, SVG Export Plug-In . SVG Version: 6.00 Build 0)  -->
<svg version="1.1" id="Layer_1" xmlns="http://www.w3.org/2000/svg" xmlns:xlink="http://www.w3.org/1999/xlink" x="0px" y="0px"
	 viewBox="0 0 30 30" style="enable-background:new 0 0 30 30;" xml:space="preserve">
<style type="text/css">
	.st0{fill:#0086B8;}
	.st1{fill:#FFFFFF;}
</style>
<circle class="st0" cx="15" cy="15" r="14.6"/>
<path class="st1" d="M24.9,10.5c0.2,0.4-0.4,1.5-1.6,3.1c-0.2,0.2-0.4,0.5-0.7,0.9c-0.3,0.4-0.5,0.6-0.6,0.7
	c-0.1,0.1-0.2,0.3-0.3,0.5c-0.1,0.2-0.1,0.3-0.1,0.4c0,0.1,0.1,0.2,0.1,0.4c0.1,0.1,0.2,0.3,0.3,0.4c0.2,0.2,0.4,0.3,0.6,0.6
	c0,0,0,0,0.1,0c1,0.9,1.6,1.7,2,2.3c0,0,0,0.1,0.1,0.1c0,0.1,0,0.1,0.1,0.3c0,0.1,0,0.2,0,0.4c0,0.1-0.1,0.2-0.3,0.3
	C24.5,21,24.3,21,24,21l-2.7,0c-0.2,0-0.4,0-0.6-0.1c-0.2-0.1-0.4-0.1-0.5-0.2L20,20.6c-0.2-0.1-0.5-0.4-0.7-0.7
	c-0.3-0.3-0.5-0.6-0.7-0.8c-0.2-0.2-0.4-0.4-0.6-0.6c-0.2-0.2-0.4-0.2-0.6-0.2c0,0,0,0-0.1,0c0,0-0.1,0.1-0.2,0.2
	c-0.1,0.1-0.2,0.2-0.2,0.3c-0.1,0.1-0.1,0.3-0.2,0.5c-0.1,0.2-0.1,0.5-0.1,0.8c0,0.1,0,0.2,0,0.3c0,0.1-0.1,0.2-0.1,0.2l0,0.1
	c-0.1,0.1-0.3,0.2-0.6,0.2h-1.2c-0.5,0-1,0-1.5-0.2c-0.5-0.1-1-0.3-1.4-0.6c-0.4-0.2-0.7-0.5-1.1-0.7c-0.3-0.2-0.6-0.4-0.7-0.6
	l-0.3-0.3c-0.1-0.1-0.2-0.2-0.3-0.3c-0.1-0.1-0.4-0.5-0.7-0.9c-0.4-0.5-0.7-1-1.1-1.6c-0.4-0.6-0.8-1.3-1.3-2.2
	c-0.5-0.9-0.9-1.9-1.4-2.8C5,10.8,5,10.7,5,10.6s0-0.1,0-0.2l0-0.1c0.1-0.1,0.3-0.2,0.6-0.2l2.8,0c0.1,0,0.2,0,0.2,0.1
	s0.1,0.1,0.2,0.1l0.1,0c0.1,0.1,0.2,0.2,0.2,0.3c0.1,0.3,0.3,0.7,0.5,1.1c0.2,0.4,0.3,0.7,0.4,0.8l0.2,0.3c0.2,0.4,0.4,0.8,0.6,1.1
	c0.2,0.3,0.4,0.5,0.5,0.7c0.1,0.2,0.3,0.3,0.4,0.4c0.1,0.1,0.3,0.1,0.4,0.1s0.2,0,0.3-0.1c0,0,0,0,0.1-0.1c0,0,0.1-0.1,0.1-0.2
	c0.1-0.1,0.1-0.3,0.1-0.5c0-0.2,0.1-0.5,0.1-0.8c0-0.4,0-0.8,0-1.3c0-0.3,0-0.5-0.1-0.8c0-0.2-0.1-0.4-0.1-0.5l-0.1-0.1
	c-0.2-0.2-0.5-0.4-0.9-0.4c-0.1,0-0.1-0.1,0.1-0.3c0.1-0.1,0.2-0.2,0.4-0.3c0.4-0.2,1.2-0.3,2.5-0.2c0.6,0,1,0.1,1.4,0.1
	c0.1,0,0.3,0.1,0.3,0.1c0.1,0.1,0.2,0.1,0.2,0.2c0,0.1,0.1,0.2,0.1,0.3c0,0.1,0,0.3,0,0.5c0,0.2,0,0.4,0,0.6c0,0.2,0,0.4,0,0.7
	c0,0.3,0,0.6,0,0.9c0,0.1,0,0.2,0,0.4s0,0.4,0,0.5c0,0.1,0,0.3,0,0.4c0,0.2,0.1,0.3,0.1,0.4c0.1,0.1,0.1,0.2,0.2,0.3
	c0.1,0,0.1,0,0.2,0c0.1,0,0.2,0,0.3-0.1c0.1-0.1,0.2-0.2,0.4-0.4c0.1-0.1,0.3-0.4,0.5-0.7c0.2-0.3,0.5-0.7,0.7-1.1
	c0.4-0.7,0.8-1.5,1.1-2.3c0-0.1,0.1-0.1,0.1-0.2c0-0.1,0.1-0.1,0.1-0.1l0,0c0,0,0,0,0.1,0c0,0,0.1,0,0.1,0c0.1,0,0.1,0,0.2,0l3,0
	c0.3,0,0.5,0,0.7,0c0.2,0.1,0.3,0.1,0.3,0.2L24.9,10.5z"/>
<path d="M55.6,14.4c0,1.6,0,2.7-0.1,3.3c-0.1,1.4-0.5,2.6-1.3,3.3c-0.8,0.8-1.9,1.2-3.3,1.3c-0.6,0-1.7,0.1-3.3,0.1
	c-1.6,0-2.7,0-3.3-0.1c-1.4-0.1-2.6-0.5-3.3-1.3c-0.8-0.8-1.2-1.9-1.3-3.3c0-0.6-0.1-1.7-0.1-3.3s0-2.7,0.1-3.3
	c0.1-1.4,0.5-2.6,1.3-3.3c0.8-0.8,1.9-1.2,3.3-1.3c0.6,0,1.7-0.1,3.3-0.1c1.6,0,2.7,0,3.3,0.1c1.4,0.1,2.6,0.5,3.3,1.3
	c0.8,0.8,1.2,1.9,1.3,3.3C55.5,11.7,55.6,12.8,55.6,14.4z M48.4,7.8c-0.5,0-0.7,0-0.8,0c0,0-0.3,0-0.8,0c-0.5,0-0.8,0-1.1,0
	c-0.3,0-0.6,0-1,0c-0.4,0-0.8,0.1-1.1,0.1c-0.3,0.1-0.5,0.1-0.7,0.2c-0.3,0.1-0.7,0.3-0.9,0.6c-0.3,0.3-0.5,0.6-0.6,0.9
	c-0.1,0.2-0.1,0.4-0.2,0.7c-0.1,0.3-0.1,0.7-0.1,1.1c0,0.4,0,0.8,0,1c0,0.2,0,0.6,0,1.1c0,0.5,0,0.7,0,0.8c0,0,0,0.3,0,0.8
	c0,0.5,0,0.8,0,1.1c0,0.2,0,0.6,0,1c0,0.4,0.1,0.8,0.1,1.1s0.1,0.5,0.2,0.7c0.1,0.3,0.3,0.7,0.6,0.9c0.3,0.3,0.6,0.5,0.9,0.6
	c0.2,0.1,0.4,0.1,0.7,0.2c0.3,0.1,0.7,0.1,1.1,0.1c0.4,0,0.8,0,1,0c0.2,0,0.6,0,1.1,0c0.5,0,0.7,0,0.8,0c0,0,0.3,0,0.8,0
	c0.5,0,0.8,0,1.1,0c0.2,0,0.6,0,1,0c0.4,0,0.8-0.1,1.1-0.1c0.3-0.1,0.5-0.1,0.7-0.2c0.3-0.1,0.7-0.3,0.9-0.6
	c0.3-0.3,0.5-0.6,0.6-0.9c0.1-0.2,0.1-0.4,0.2-0.7c0.1-0.3,0.1-0.7,0.1-1.1c0-0.4,0-0.8,0-1c0-0.2,0-0.6,0-1.1c0-0.5,0-0.7,0-0.8
	c0,0,0-0.3,0-0.8c0-0.5,0-0.8,0-1.1c0-0.2,0-0.6,0-1c0-0.4-0.1-0.8-0.1-1.1c-0.1-0.3-0.1-0.5-0.2-0.7c-0.1-0.3-0.3-0.7-0.6-0.9
	c-0.3-0.3-0.6-0.5-0.9-0.6C52.1,8.1,51.8,8,51.5,8c-0.3-0.1-0.7-0.1-1.1-0.1c-0.4,0-0.8,0-1,0C49.2,7.8,48.8,7.8,48.4,7.8z
	 M50.5,11.5c0.8,0.8,1.2,1.8,1.2,2.9s-0.4,2.1-1.2,2.9c-0.8,0.8-1.8,1.2-2.9,1.2c-1.1,0-2.1-0.4-2.9-1.2c-0.8-0.8-1.2-1.8-1.2-2.9
	s0.4-2.1,1.2-2.9c0.8-0.8,1.8-1.2,2.9-1.2C48.7,10.3,49.7,10.7,50.5,11.5z M49.4,16.3c0.5-0.5,0.8-1.1,0.8-1.9
	c0-0.7-0.3-1.4-0.8-1.9c-0.5-0.5-1.1-0.8-1.9-0.8c-0.7,0-1.4,0.3-1.9,0.8c-0.5,0.5-0.8,1.1-0.8,1.9c0,0.7,0.3,1.4,0.8,1.9
	c0.5,0.5,1.1,0.8,1.9,0.8C48.3,17.1,48.9,16.8,49.4,16.3z M52.5,9.5c0.2,0.2,0.3,0.4,0.3,0.7c0,0.3-0.1,0.5-0.3,0.7
	c-0.2,0.2-0.4,0.3-0.7,0.3c-0.3,0-0.5-0.1-0.7-0.3c-0.2-0.2-0.3-0.4-0.3-0.7c0-0.3,0.1-0.5,0.3-0.7c0.2-0.2,0.4-0.3,0.7-0.3
	C52.1,9.2,52.3,9.3,52.5,9.5z"/>
<path d="M65.3,7c1-0.4,2-0.6,3-0.6c1.1,0,2.1,0.2,3,0.6c1,0.4,1.8,1,2.5,1.7c0.7,0.7,1.3,1.5,1.7,2.5c0.4,1,0.6,2,0.6,3
	c0,1.1-0.2,2.1-0.6,3c-0.4,1-1,1.8-1.7,2.5c-0.7,0.7-1.5,1.3-2.5,1.7c-1,0.4-2,0.6-3,0.6c-1.4,0-2.6-0.3-3.8-1l-4.3,1.4l1.4-4.2
	c-0.7-1.2-1.1-2.6-1.1-4c0-1.1,0.2-2.1,0.6-3c0.4-1,1-1.8,1.7-2.5C63.5,8,64.3,7.4,65.3,7z M68.3,20.7c0.9,0,1.7-0.2,2.5-0.5
	c0.8-0.3,1.5-0.8,2.1-1.4c0.6-0.6,1-1.3,1.4-2.1c0.3-0.8,0.5-1.7,0.5-2.5c0-0.9-0.2-1.7-0.5-2.5c-0.3-0.8-0.8-1.5-1.4-2.1
	c-0.6-0.6-1.3-1-2.1-1.4s-1.7-0.5-2.5-0.5c-0.9,0-1.7,0.2-2.5,0.5S64.3,9,63.7,9.6c-0.6,0.6-1,1.3-1.4,2.1c-0.3,0.8-0.5,1.7-0.5,2.5
	c0,1.4,0.4,2.7,1.2,3.8l-0.8,2.4l2.5-0.8C65.8,20.4,67,20.7,68.3,20.7z M69.9,15.7c0.3-0.3,0.5-0.5,0.5-0.5c0.1,0,0.4,0.2,1,0.5
	c0.6,0.3,0.9,0.5,0.9,0.6c0,0,0,0.1,0,0.2c0,0.2-0.1,0.5-0.2,0.8c-0.1,0.3-0.4,0.5-0.7,0.7c-0.4,0.2-0.7,0.3-1.1,0.3
	c-0.4,0-1.1-0.2-2-0.6c-0.7-0.3-1.3-0.7-1.8-1.2c-0.5-0.5-1-1.1-1.5-1.9c-0.5-0.7-0.7-1.4-0.7-2v-0.1c0-0.6,0.3-1.2,0.8-1.6
	c0.2-0.2,0.3-0.2,0.5-0.2c0,0,0.1,0,0.2,0c0.1,0,0.1,0,0.2,0c0.1,0,0.2,0,0.3,0.1c0.1,0,0.1,0.1,0.2,0.3c0.1,0.1,0.2,0.4,0.3,0.9
	c0.2,0.5,0.3,0.7,0.3,0.8c0,0.1-0.1,0.3-0.4,0.6c-0.2,0.3-0.4,0.4-0.4,0.5c0,0,0,0.1,0.1,0.2c0.2,0.5,0.6,1,1.1,1.4
	c0.4,0.4,0.9,0.7,1.6,1c0.1,0,0.2,0.1,0.2,0.1C69.5,16.2,69.6,16.1,69.9,15.7z"/>
</svg>
