<?xml version="1.0" encoding="utf-8"?>
<!-- Generator: Adobe Illustrator 23.0.1, SVG Export Plug-In . SVG Version: 6.00 Build 0)  -->
<svg version="1.1" id="Layer_1" xmlns="http://www.w3.org/2000/svg" xmlns:xlink="http://www.w3.org/1999/xlink" x="0px" y="0px"
	 viewBox="0 0 30 30" style="enable-background:new 0 0 30 30;" xml:space="preserve">
<style type="text/css">
	.st0{fill:#CE1100;}
	.st1{fill:#FFFFFF;}
</style>
<circle class="st0" cx="15" cy="15" r="14.6"/>
<path class="st1" d="M23,10.1v10c0,0.8-0.3,1.5-0.9,2.1c-0.6,0.6-1.3,0.9-2.1,0.9H10c-0.8,0-1.5-0.3-2.1-0.9C7.3,21.6,7,20.9,7,20.1
	v-10C7,9.3,7.3,8.6,7.9,8C8.5,7.5,9.2,7.2,10,7.2h10c0.8,0,1.5,0.3,2.1,0.9C22.7,8.6,23,9.3,23,10.1z M20.7,18
	c0-1.2-0.1-2.1-0.2-2.7c-0.1-0.3-0.2-0.6-0.4-0.8s-0.5-0.3-0.8-0.4C18.3,14.1,16.9,14,15,14c-1.9,0-3.3,0.1-4.3,0.2
	c-0.3,0-0.6,0.2-0.8,0.4S9.6,15,9.5,15.3c-0.1,0.6-0.2,1.5-0.2,2.7c0,1.2,0.1,2.1,0.2,2.7c0.1,0.3,0.2,0.6,0.4,0.8
	c0.2,0.2,0.5,0.3,0.8,0.4c0.9,0.1,2.4,0.2,4.3,0.2c1.9,0,3.3-0.1,4.3-0.2c0.3,0,0.6-0.2,0.8-0.4c0.2-0.2,0.4-0.5,0.4-0.8
	C20.6,20.1,20.7,19.2,20.7,18z M12.5,15.3v0.7h-0.8v4.4h-0.8v-4.4h-0.8v-0.7H12.5z M12.9,11.2l0.9-3.1H13l-0.5,2l-0.5-2h-0.8
	c0,0.2,0.1,0.4,0.2,0.7c0.1,0.3,0.2,0.6,0.2,0.7c0.2,0.7,0.4,1.3,0.5,1.6v2.1h0.8V11.2z M14.6,16.6v3.8h-0.7V20
	c-0.3,0.3-0.5,0.5-0.8,0.5c-0.2,0-0.4-0.1-0.4-0.3c0-0.1-0.1-0.3-0.1-0.6v-3h0.7v2.8c0,0.2,0,0.3,0,0.3c0,0.1,0.1,0.2,0.2,0.2
	c0.1,0,0.3-0.1,0.4-0.3v-2.9H14.6z M15.9,12.1v-1.3c0-0.4-0.1-0.7-0.2-0.9c-0.2-0.3-0.5-0.4-0.8-0.4c-0.4,0-0.6,0.1-0.8,0.4
	c-0.1,0.2-0.2,0.5-0.2,0.9v1.3c0,0.4,0.1,0.7,0.2,0.9c0.2,0.3,0.5,0.4,0.8,0.4c0.3,0,0.6-0.1,0.8-0.4C15.8,12.8,15.9,12.5,15.9,12.1
	z M15.2,10.6v1.6c0,0.4-0.1,0.5-0.3,0.5c-0.2,0-0.3-0.2-0.3-0.5v-1.6c0-0.4,0.1-0.5,0.3-0.5C15.1,10,15.2,10.2,15.2,10.6z
	 M17.2,17.8v1.5c0,0.4,0,0.6-0.1,0.8c-0.1,0.3-0.3,0.4-0.6,0.4c-0.2,0-0.5-0.1-0.7-0.4v0.4h-0.7v-5.1h0.7V17
	c0.2-0.3,0.5-0.4,0.7-0.4c0.3,0,0.5,0.1,0.6,0.4C17.2,17.2,17.2,17.4,17.2,17.8z M16.6,19.4v-1.6c0-0.3-0.1-0.5-0.3-0.5
	c-0.1,0-0.2,0.1-0.3,0.2v2.3c0.1,0.1,0.2,0.2,0.3,0.2C16.5,19.9,16.6,19.7,16.6,19.4z M17.7,13.3h0.7V9.5h-0.7v2.9
	c-0.2,0.2-0.3,0.3-0.4,0.3c-0.1,0-0.2-0.1-0.2-0.2c0,0,0-0.1,0-0.3V9.5h-0.7v3c0,0.3,0,0.4,0.1,0.6c0.1,0.2,0.2,0.3,0.4,0.3
	c0.2,0,0.5-0.2,0.8-0.5V13.3z M19.8,19.1L19.8,19.1c0,0.3,0,0.4,0,0.5c0,0.2-0.1,0.3-0.2,0.4c-0.2,0.3-0.5,0.4-0.8,0.4
	c-0.4,0-0.6-0.1-0.8-0.4c-0.1-0.2-0.2-0.5-0.2-0.9v-1.3c0-0.4,0.1-0.7,0.2-0.9c0.2-0.3,0.5-0.4,0.8-0.4s0.6,0.1,0.8,0.4
	c0.1,0.2,0.2,0.5,0.2,0.9v0.8h-1.4v0.7c0,0.4,0.1,0.5,0.4,0.5c0.2,0,0.3-0.1,0.3-0.3c0,0,0,0,0-0.1c0,0,0-0.1,0-0.2s0-0.1,0-0.2
	H19.8z M18.5,18.1h0.7v-0.4c0-0.4-0.1-0.5-0.3-0.5c-0.2,0-0.3,0.2-0.3,0.5V18.1z"/>
</svg>
